<svg version="1.1" id="Layer_1" xmlns="http://www.w3.org/2000/svg" xmlns:xlink="http://www.w3.org/1999/xlink" x="0px" y="0px"
	 width="100%" viewBox="0 0 200 200" enable-background="new 0 0 200 200" xml:space="preserve">
<path fill="#E4FE77" opacity="1.000000" stroke="none" 
	d="
M201.000000,2.000000 
	C201.000000,68.284767 201.000000,134.569534 201.000000,201.000000 
	C167.739761,201.000000 134.479340,201.000000 101.218903,201.000000 
	C67.909973,201.000000 34.601048,201.000000 1.000000,201.000000 
	C1.000000,134.979385 1.000000,68.958351 1.468416,2.485807 
	C68.291222,2.022866 134.645615,2.011433 201.000000,2.000000 
M99.908707,107.033928 
	C99.908707,107.033928 99.712456,107.108940 99.719177,106.477455 
	C99.129562,105.374344 98.539940,104.271225 97.752113,102.383034 
	C96.268959,101.921066 94.797523,101.111176 93.300507,101.060745 
	C88.311302,100.892685 83.309669,100.884827 78.318977,101.029236 
	C73.551743,101.167183 68.792236,101.572304 63.346642,102.001038 
	C62.886223,101.957710 62.425804,101.914383 61.385693,101.431419 
	C59.591457,101.967896 57.797222,102.504372 55.828358,103.488350 
	C55.634705,103.766205 55.371635,103.937393 54.605202,104.361984 
	C54.435490,104.694260 54.265774,105.026543 54.095200,106.186768 
	C54.114872,108.123161 54.134544,110.059555 54.007389,112.923523 
	C53.998241,120.421295 53.905190,127.920341 54.019154,135.416245 
	C54.068211,138.642838 54.546310,141.862930 55.151485,145.778259 
	C57.066025,146.514435 58.968739,147.849152 60.897072,147.887238 
	C71.458138,148.095901 82.026741,147.891479 92.590073,148.031784 
	C96.973114,148.089981 99.460495,146.285431 100.596771,141.294815 
	C100.731621,132.915924 100.957092,124.537010 100.953690,116.158188 
	C100.952446,113.097176 100.407448,110.036377 99.908707,107.033928 
M144.589600,55.590298 
	C144.006531,55.413807 143.423477,55.237316 142.205887,55.096115 
	C141.791412,55.014526 141.376953,54.932938 140.281433,54.397972 
	C139.632233,54.271919 138.983185,54.036583 138.333817,54.035709 
	C119.668999,54.010590 101.004120,53.994572 82.339409,54.039806 
	C81.235390,54.042484 80.132645,54.568249 78.349861,54.993279 
	C77.891869,54.946415 77.433884,54.899548 76.447182,54.439667 
	C74.973053,54.574520 73.498924,54.709377 71.347206,54.978607 
	C70.890518,54.940674 70.433838,54.902737 69.771957,54.639290 
	C69.459602,54.497211 69.211319,54.584446 68.404671,55.198486 
	C66.558876,57.143383 64.713081,59.088276 62.405231,61.710281 
	C62.554001,70.127029 62.702774,78.543785 63.105785,87.649841 
	C64.508804,91.955185 67.617416,93.339783 71.946320,93.274025 
	C81.412605,93.130241 90.883080,93.162895 100.350769,93.245834 
	C106.608437,93.300644 109.064125,95.825119 109.116241,102.057396 
	C109.143967,105.374733 109.000542,108.693512 108.451035,112.676682 
	C108.609589,117.778000 108.768143,122.879311 109.075500,128.804291 
	C109.094902,130.744568 109.114304,132.684830 109.150345,135.352997 
	C109.538689,135.944244 109.927032,136.535477 110.753349,137.299606 
	C110.936356,137.707108 111.119354,138.114624 111.028030,138.729507 
	C111.152473,138.688248 111.276917,138.646988 112.009529,138.625992 
	C112.672516,139.086258 113.335495,139.546509 114.452209,140.453156 
	C115.625465,140.364792 116.798714,140.276428 118.651527,140.060760 
	C119.108917,140.101578 119.566315,140.142395 120.716148,140.620148 
	C126.468742,140.474930 132.221329,140.329712 138.735748,140.057053 
	C139.504166,140.100830 140.272598,140.144592 141.621719,140.597549 
	C145.977097,141.920380 148.123993,139.339020 148.710968,135.767715 
	C149.318604,132.070786 148.991425,128.212769 148.994492,124.425156 
	C149.010910,104.109482 149.055023,83.793419 148.913986,63.478718 
	C148.901306,61.653137 147.636581,59.836243 146.459274,57.741814 
	C145.966949,57.186081 145.474625,56.630348 144.589600,55.590298 
z"/>
<path fill="#F3FFAC" opacity="1.000000" stroke="none" 
	d="
M201.000000,1.500000 
	C134.645615,2.011433 68.291222,2.022866 1.468416,2.017149 
	C2.333333,1.666667 3.666455,1.042680 5.000031,1.041708 
	C70.333328,0.994067 135.666672,1.000000 201.000000,1.500000 
z"/>
<path fill="#4A5809" opacity="1.000000" stroke="none" 
	d="
M109.133698,134.625107 
	C109.114304,132.684830 109.094902,130.744568 109.082916,127.933449 
	C109.038338,122.045616 108.986351,117.028625 108.934372,112.011635 
	C109.000542,108.693512 109.143967,105.374733 109.116241,102.057396 
	C109.064125,95.825119 106.608437,93.300644 100.350769,93.245834 
	C90.883080,93.162895 81.412605,93.130241 71.946320,93.274025 
	C67.617416,93.339783 64.508804,91.955185 63.030441,86.842438 
	C63.024090,80.018379 63.093075,74.001724 63.495483,67.919693 
	C67.661552,63.526802 72.506828,62.797409 78.095024,62.889431 
	C96.013397,63.184490 113.942657,63.185501 131.861313,62.899181 
	C138.217529,62.797615 143.922379,63.235764 147.918686,69.448639 
	C148.003235,90.072670 147.876465,110.233665 148.113022,130.390381 
	C148.176437,135.793564 146.026688,138.817230 141.041016,140.188370 
	C140.272598,140.144592 139.504166,140.100830 137.893829,140.046143 
	C131.375854,140.084564 125.699776,140.133881 120.023705,140.183212 
	C119.566315,140.142395 119.108917,140.101578 117.919441,140.046906 
	C116.124397,140.024277 115.061440,140.015518 113.998482,140.006775 
	C113.335495,139.546509 112.672516,139.086258 111.666229,138.612106 
	C111.322922,138.598221 111.302361,138.522125 111.302361,138.522125 
	C111.119354,138.114624 110.936356,137.707108 110.438965,136.869141 
	C109.794289,135.834152 109.463989,135.229630 109.133698,134.625107 
z"/>
<path fill="#4A5909" opacity="1.000000" stroke="none" 
	d="
M100.127922,141.968658 
	C99.460495,146.285431 96.973114,148.089981 92.590073,148.031784 
	C82.026741,147.891479 71.458138,148.095901 60.897072,147.887238 
	C58.968739,147.849152 57.066025,146.514435 55.247131,145.196808 
	C55.562103,138.352722 55.933292,132.090958 55.970154,125.827225 
	C56.055241,111.368797 54.037189,110.566452 70.911041,111.057915 
	C79.624947,111.311707 88.319511,112.198334 97.030235,112.658371 
	C97.644104,112.690796 98.319504,111.558250 98.971130,110.629166 
	C99.221466,109.230247 99.466957,108.169594 99.712456,107.108940 
	C99.712456,107.108940 99.908707,107.033928 99.956772,107.451279 
	C100.045868,119.235313 100.086899,130.601990 100.127922,141.968658 
z"/>
<path fill="#3E4C07" opacity="1.000000" stroke="none" 
	d="
M147.843689,68.984001 
	C143.922379,63.235764 138.217529,62.797615 131.861313,62.899181 
	C113.942657,63.185501 96.013397,63.184490 78.095024,62.889431 
	C72.506828,62.797409 67.661552,63.526802 63.431618,67.488708 
	C62.978645,65.093117 62.922966,63.063145 62.867287,61.033169 
	C64.713081,59.088276 66.558876,57.143383 68.955452,55.097023 
	C69.506233,54.995564 69.977150,54.864803 69.977150,54.864803 
	C70.433838,54.902737 70.890518,54.940674 72.093620,54.989410 
	C74.218651,54.951038 75.597275,54.901863 76.975891,54.852684 
	C77.433884,54.899548 77.891869,54.946415 79.151230,54.994331 
	C100.289223,54.947376 120.625854,54.899364 140.962479,54.851349 
	C141.376953,54.932938 141.791412,55.014526 142.727417,55.306763 
	C143.826721,55.703140 144.404510,55.888878 144.982300,56.074615 
	C145.474625,56.630348 145.966949,57.186081 146.801941,58.280319 
	C147.377640,62.207222 147.610657,65.595612 147.843689,68.984001 
z"/>
<path fill="#3D4B06" opacity="1.000000" stroke="none" 
	d="
M99.715820,106.793198 
	C99.466957,108.169594 99.221466,109.230247 98.621872,110.477692 
	C95.215561,110.109253 92.174835,109.165733 89.108864,109.074989 
	C81.351379,108.845352 73.563583,108.677063 65.826180,109.133095 
	C61.892944,109.364906 58.042233,110.996910 54.154217,111.995949 
	C54.134544,110.059555 54.114872,108.123161 54.338547,105.616379 
	C54.734314,104.697968 54.886734,104.349945 55.039154,104.001923 
	C55.371635,103.937393 55.634705,103.766205 56.284500,103.162796 
	C58.482224,102.515182 60.223804,102.193123 61.965385,101.871063 
	C62.425804,101.914383 62.886223,101.957710 64.149498,102.003876 
	C72.052238,102.015472 79.155357,101.898926 86.250717,102.082626 
	C90.157326,102.183762 94.050880,102.789742 97.950317,103.168114 
	C98.539940,104.271225 99.129562,105.374344 99.715820,106.793198 
z"/>
<path fill="#435206" opacity="1.000000" stroke="none" 
	d="
M54.080803,112.459732 
	C58.042233,110.996910 61.892944,109.364906 65.826180,109.133095 
	C73.563583,108.677063 81.351379,108.845352 89.108864,109.074989 
	C92.174835,109.165733 95.215561,110.109253 98.617035,110.815948 
	C98.319504,111.558250 97.644104,112.690796 97.030235,112.658371 
	C88.319511,112.198334 79.624947,111.311707 70.911041,111.057915 
	C54.037189,110.566452 56.055241,111.368797 55.970154,125.827225 
	C55.933292,132.090958 55.562103,138.352722 55.086136,144.850677 
	C54.546310,141.862930 54.068211,138.642838 54.019154,135.416245 
	C53.905190,127.920341 53.998241,120.421295 54.080803,112.459732 
z"/>
<path fill="#DDF27F" opacity="1.000000" stroke="none" 
	d="
M147.918671,69.448639 
	C147.610657,65.595612 147.377640,62.207222 147.048981,58.417072 
	C147.636581,59.836243 148.901306,61.653137 148.913986,63.478718 
	C149.055023,83.793419 149.010910,104.109482 148.994492,124.425156 
	C148.991425,128.212769 149.318604,132.070786 148.710968,135.767715 
	C148.123993,139.339020 145.977097,141.920380 141.331360,140.392960 
	C146.026688,138.817230 148.176437,135.793564 148.113022,130.390381 
	C147.876465,110.233665 148.003235,90.072670 147.918671,69.448639 
z"/>
<path fill="#E2F984" opacity="1.000000" stroke="none" 
	d="
M140.621948,54.624664 
	C120.625854,54.899364 100.289223,54.947376 79.490952,54.922997 
	C80.132645,54.568249 81.235390,54.042484 82.339409,54.039806 
	C101.004120,53.994572 119.668999,54.010590 138.333817,54.035709 
	C138.983185,54.036583 139.632233,54.271919 140.621948,54.624664 
z"/>
<path fill="#E7FB88" opacity="1.000000" stroke="none" 
	d="
M100.362350,141.631744 
	C100.086899,130.601990 100.045868,119.235313 100.057678,107.422058 
	C100.407448,110.036377 100.952446,113.097176 100.953690,116.158188 
	C100.957092,124.537010 100.731621,132.915924 100.362350,141.631744 
z"/>
<path fill="#E2F88A" opacity="1.000000" stroke="none" 
	d="
M97.851212,102.775574 
	C94.050880,102.789742 90.157326,102.183762 86.250717,102.082626 
	C79.155357,101.898926 72.052238,102.015472 64.490845,101.933342 
	C68.792236,101.572304 73.551743,101.167183 78.318977,101.029236 
	C83.309669,100.884827 88.311302,100.892685 93.300507,101.060745 
	C94.797523,101.111176 96.268959,101.921066 97.851212,102.775574 
z"/>
<path fill="#E4FB85" opacity="1.000000" stroke="none" 
	d="
M62.636261,61.371727 
	C62.922966,63.063145 62.978645,65.093117 63.098194,67.554077 
	C63.093075,74.001724 63.024090,80.018379 62.903320,86.497787 
	C62.702774,78.543785 62.554001,70.127029 62.636261,61.371727 
z"/>
<path fill="#DDF27F" opacity="1.000000" stroke="none" 
	d="
M120.369926,140.401672 
	C125.699776,140.133881 131.375854,140.084564 137.512924,140.109863 
	C132.221329,140.329712 126.468742,140.474930 120.369926,140.401672 
z"/>
<path fill="#DDF27F" opacity="1.000000" stroke="none" 
	d="
M108.692703,112.344162 
	C108.986351,117.028625 109.038338,122.045616 109.008514,127.521622 
	C108.768143,122.879311 108.609589,117.778000 108.692703,112.344162 
z"/>
<path fill="#E2F88A" opacity="1.000000" stroke="none" 
	d="
M61.675537,101.651245 
	C60.223804,102.193123 58.482224,102.515182 56.371815,102.939041 
	C57.797222,102.504372 59.591457,101.967896 61.675537,101.651245 
z"/>
<path fill="#E2F984" opacity="1.000000" stroke="none" 
	d="
M76.711533,54.646175 
	C75.597275,54.901863 74.218651,54.951038 72.432419,54.922222 
	C73.498924,54.709377 74.973053,54.574520 76.711533,54.646175 
z"/>
<path fill="#DDF27F" opacity="1.000000" stroke="none" 
	d="
M114.225342,140.229965 
	C115.061440,140.015518 116.124397,140.024277 117.579666,140.110550 
	C116.798714,140.276428 115.625465,140.364792 114.225342,140.229965 
z"/>
<path fill="#DDF27F" opacity="1.000000" stroke="none" 
	d="
M144.785950,55.832458 
	C144.404510,55.888878 143.826721,55.703140 143.044678,55.289116 
	C143.423477,55.237316 144.006531,55.413807 144.785950,55.832458 
z"/>
<path fill="#DDF27F" opacity="1.000000" stroke="none" 
	d="
M109.142014,134.989044 
	C109.463989,135.229630 109.794289,135.834152 110.219986,136.782700 
	C109.927032,136.535477 109.538689,135.944244 109.142014,134.989044 
z"/>
<path fill="#E2F88A" opacity="1.000000" stroke="none" 
	d="
M54.822178,104.181953 
	C54.886734,104.349945 54.734314,104.697968 54.338974,105.202408 
	C54.265774,105.026543 54.435490,104.694260 54.822178,104.181953 
z"/>
<path fill="#DDF27F" opacity="1.000000" stroke="none" 
	d="
M111.362144,138.601974 
	C111.276917,138.646988 111.152473,138.688248 111.165192,138.625824 
	C111.302361,138.522125 111.322922,138.598221 111.362144,138.601974 
z"/>
<path fill="#E2F984" opacity="1.000000" stroke="none" 
	d="
M69.874557,54.752045 
	C69.977150,54.864803 69.506233,54.995564 69.266678,54.948280 
	C69.211319,54.584446 69.459602,54.497211 69.874557,54.752045 
z"/>
</svg>